<svg id="svg" version="1.1" xmlns="http://www.w3.org/2000/svg" style="display: block;" viewBox="0 0 480 185"><path d="M0 0 C158.4 0 316.8 0 480 0 C480 61.05 480 122.1 480 185 C321.6 185 163.2 185 0 185 C0 123.95 0 62.9 0 0 Z " transform="translate(0,0)" style="fill: #000000;"/><path d="M0 0 C158.4 0 316.8 0 480 0 C480 61.05 480 122.1 480 185 C321.6 185 163.2 185 0 185 C0 123.95 0 62.9 0 0 Z M35 34 C33.80117188 35.03060547 33.80117188 35.03060547 32.578125 36.08203125 C18.67845543 48.99913797 9.54831429 67.72377638 8.6796875 86.63671875 C8.35900966 98.42700533 8.97143344 108.82669345 13 120 C13.27714844 120.88171875 13.55429688 121.7634375 13.83984375 122.671875 C19.93622028 140.31484488 35.04945267 155.65963026 51.59375 163.859375 C63.62593915 169.23659227 74.77725495 171.45165705 87.9216156 171.38095093 C89.28801997 171.38441554 90.65442153 171.38918546 92.02081734 171.39513266 C95.74260563 171.40756229 99.46416073 171.40150933 103.18594944 171.39217401 C107.2126251 171.38535052 111.23926231 171.39588105 115.26593018 171.40411377 C123.14143993 171.41741864 131.01686366 171.41458778 138.89237671 171.40587585 C145.29644842 171.39908641 151.70049611 171.39818802 158.10457039 171.4014473 C159.47446833 171.40213684 159.47446833 171.40213684 160.87204098 171.40284032 C162.72763507 171.40379955 164.58322915 171.40477219 166.43882323 171.4057581 C183.81870035 171.41430261 201.19852993 171.40449286 218.57839925 171.388357 C233.47229323 171.37495693 248.36611705 171.37728117 263.26000977 171.39111328 C280.57834673 171.40718959 297.89664205 171.41347636 315.21498543 171.40427649 C317.06386156 171.4033209 318.9127377 171.40237779 320.76161385 171.4014473 C321.67116523 171.40098447 322.58071662 171.40052164 323.51783017 171.40004479 C329.90937765 171.39746088 336.30089858 171.40181299 342.69244194 171.40888596 C350.48860869 171.41732407 358.2846849 171.4149725 366.08084136 171.39904372 C370.05413372 171.39119165 374.02727544 171.38801667 378.00056648 171.39799118 C381.64558912 171.40700278 385.29032305 171.40190029 388.93531991 171.38605852 C390.86174278 171.38117807 392.78818607 171.39084911 394.71458715 171.40123022 C405.99322187 171.32591101 416.53219576 169.30247865 426.6875 164.3125 C427.40808594 163.96437256 428.12867188 163.61624512 428.87109375 163.25756836 C434.92207728 160.23275678 440.04442801 156.61990045 445 152 C445.75410156 151.33613281 446.50820313 150.67226562 447.28515625 149.98828125 C461.45274832 136.84133904 470.27557076 117.91177565 471.28515625 98.63671875 C471.89058224 78.66195486 466.71786163 59.64456619 454 44 C453.32195312 43.15953125 452.64390625 42.3190625 451.9453125 41.453125 C444.50057779 32.71019811 435.99074622 26.72641263 425.75 21.6875 C424.78707031 21.19902588 424.78707031 21.19902588 423.8046875 20.70068359 C412.59991241 15.4607073 400.18054898 14.55148249 387.99682617 14.61904907 C386.65813156 14.61558084 385.31943982 14.61080855 383.9807539 14.60486734 C380.34941348 14.59248741 376.71831334 14.59846737 373.08697271 14.60782599 C369.15233681 14.61467028 365.21773956 14.60410886 361.28311157 14.59588623 C353.59383304 14.58260357 345.90464276 14.58540211 338.21536088 14.59412415 C331.96154959 14.60092194 325.7077629 14.6018084 319.45394897 14.5985527 C318.56109513 14.598093 317.66824128 14.59763331 316.74833125 14.59715968 C314.93405222 14.59620042 313.1197732 14.59522778 311.30549419 14.5942419 C294.32565598 14.58570403 277.34586651 14.59549693 260.3660363 14.611643 C245.82245033 14.62504472 231.27893623 14.62271618 216.73535156 14.60888672 C199.81287232 14.59280252 182.89043569 14.58652785 165.96794987 14.59572351 C164.16065026 14.59667907 162.35335065 14.59762219 160.54605103 14.5985527 C159.6570148 14.59901553 158.76797857 14.59947836 157.85200185 14.59995521 C151.61164106 14.60253659 145.3713075 14.59819255 139.13095093 14.59111404 C131.51753633 14.58266721 123.90421443 14.5850457 116.29081035 14.60095628 C112.41243567 14.60879641 108.53421508 14.61200409 104.65584183 14.60200882 C101.09533471 14.59297208 97.53512237 14.59813975 93.97464144 14.61394148 C92.0985529 14.61880197 90.22244336 14.60917378 88.34637737 14.59876978 C68.19053231 14.73597758 50.34490451 20.78633223 35 34 Z " transform="translate(0,0)" style="fill: #000000;"/><path d="M0 0 C1.33869461 -0.00346823 2.67738635 -0.00824053 4.01607227 -0.01418173 C7.64741269 -0.02656166 11.27851283 -0.0205817 14.90985346 -0.01122308 C18.84448936 -0.00437879 22.77908662 -0.01494021 26.7137146 -0.02316284 C34.40299314 -0.0364455 42.09218341 -0.03364696 49.78146529 -0.02492492 C56.03527658 -0.01812713 62.28906327 -0.01724067 68.5428772 -0.02049637 C69.43573105 -0.02095607 70.3285849 -0.02141577 71.24849492 -0.0218894 C73.06277395 -0.02284865 74.87705297 -0.02382129 76.69133198 -0.02480717 C93.67117019 -0.03334505 110.65095966 -0.02355215 127.63078988 -0.00740607 C142.17437584 0.00599565 156.71788994 0.0036671 171.26147461 -0.01016235 C188.18395386 -0.02624655 205.10639048 -0.03252122 222.0288763 -0.02332556 C223.83617591 -0.02237 225.64347553 -0.02142688 227.45077515 -0.02049637 C228.33981138 -0.02003354 229.2288476 -0.01957072 230.14482433 -0.01909386 C236.38518511 -0.01651248 242.62551868 -0.02085652 248.86587524 -0.02793503 C256.47928984 -0.03638186 264.09261174 -0.03400337 271.70601583 -0.0180928 C275.5843905 -0.01025266 279.46261109 -0.00704498 283.34098434 -0.01704025 C286.90149146 -0.02607699 290.4617038 -0.02090933 294.02218473 -0.0051076 C295.89827327 -0.0002471 297.77438281 -0.0098753 299.6504488 -0.02027929 C311.77790637 0.0622765 323.67183816 1.95070505 334.62182617 7.38095093 C335.41959473 7.7697644 336.21736328 8.15857788 337.03930664 8.55917358 C355.83699922 18.13392905 368.15091607 34.51589432 375.34838867 54.04891968 C381.73256814 74.00522169 380.48785677 94.99594242 371.24682617 113.81845093 C367.88700556 120.30073482 363.95023675 125.99435236 358.99682617 131.38095093 C357.94881836 132.54884155 357.94881836 132.54884155 356.87963867 133.74032593 C349.39431587 141.67849744 340.80097722 146.75072915 330.93432617 151.19345093 C330.29809326 151.48365112 329.66186035 151.77385132 329.00634766 152.07284546 C319.34452528 156.23837742 309.73989318 156.67420184 299.32917786 156.64837646 C297.96592623 156.65211944 296.60267674 156.65672352 295.23943061 156.66210711 C291.51703743 156.67427266 287.79473456 156.67408431 284.07232606 156.67171836 C280.04830521 156.67130855 276.02431267 156.68236494 272.00030518 156.6918335 C264.12520992 156.70840915 256.25014461 156.71394149 248.37503336 156.71505825 C241.96998036 156.71601038 235.5649372 156.72012887 229.15988731 156.7264595 C210.97822685 156.74406269 192.79658994 156.75329984 174.61492089 156.75179856 C173.63582024 156.75171864 172.65671959 156.75163873 171.64794922 156.7515564 C170.17749349 156.75143375 170.17749349 156.75143375 168.67733159 156.75130863 C152.79657127 156.75049604 136.91590586 156.76962942 121.03517298 156.79783313 C104.70722803 156.82660097 88.37932932 156.84037127 72.0513584 156.83864558 C62.89318975 156.83798301 53.73512061 156.84341657 44.57697487 156.86500168 C36.77861043 156.88326489 28.9803906 156.88751879 21.18201397 156.87398283 C17.20843708 156.86747895 13.23513721 156.86724173 9.26158714 156.88468933 C5.61384929 156.9005406 1.9666053 156.89743555 -1.68112139 156.88012107 C-3.60418738 156.87565135 -5.52726944 156.89061333 -7.45027417 156.90660036 C-19.15765067 156.81509069 -30.68360043 154.26448845 -41.12817383 148.81845093 C-41.78575684 148.47966919 -42.44333984 148.14088745 -43.12084961 147.7918396 C-61.46190645 137.90413734 -74.07850205 121.17599795 -80.31567383 101.44345093 C-86.28727584 81.10976814 -84.15239237 59.75161531 -74.17504883 41.18173218 C-64.06478765 23.11031615 -48.72072774 9.86696977 -29.00317383 3.38095093 C-19.26058634 0.93052519 -10.0559678 -0.05576681 0 0 Z M-37.19067383 16.94345093 C-37.85010986 17.28150757 -38.5095459 17.61956421 -39.18896484 17.96786499 C-55.48396909 26.76318375 -66.45289976 41.96582868 -72.00317383 59.38095093 C-77.12536436 77.72435939 -74.38116738 96.86569022 -65.35864258 113.44735718 C-55.75066801 130.05919989 -40.4770451 141.16585148 -21.94067383 146.13095093 C-12.49488491 148.46190601 -2.88419626 148.52759107 6.79130554 148.5146637 C8.67484787 148.51806203 8.67484787 148.51806203 10.59644157 148.52152902 C14.05658028 148.52760629 17.51669469 148.52751826 20.97683752 148.52633464 C24.71863698 148.5261296 28.46042885 148.53165926 32.20222473 148.53639221 C39.52385683 148.54467704 46.84548087 148.54744607 54.16711726 148.54800459 C60.12260562 148.5484808 66.07809135 148.55054077 72.03357887 148.55370522 C88.94247254 148.56250602 105.85135987 148.56712551 122.76025584 148.56637474 C124.12585547 148.56631481 124.12585547 148.56631481 125.51904297 148.56625366 C126.43056265 148.56621278 127.34208232 148.5661719 128.28122381 148.56612978 C143.0464785 148.56572352 157.81170767 148.57528965 172.57695498 148.58939203 C187.76132244 148.60377952 202.94567747 148.6106609 218.13005191 148.60979825 C226.64544015 148.60946709 235.16080163 148.61217851 243.6761837 148.6229763 C250.92737873 148.6321126 258.17853487 148.63423098 265.42973318 148.62746688 C269.12374925 148.62421735 272.81769084 148.62408777 276.51169968 148.63282013 C305.36445135 148.69676325 329.27546031 147.66127383 350.99682617 126.38095093 C351.62459961 125.78927124 352.25237305 125.19759155 352.89916992 124.58798218 C364.15737134 113.02343514 369.98833537 95.17788402 370.43432617 79.31845093 C369.8733847 62.88286587 365.16719814 48.30180085 354.99682617 35.38095093 C354.41288086 34.62040405 353.82893555 33.85985718 353.22729492 33.07626343 C342.27640683 19.75076171 326.6729515 12.60509072 309.99682617 9.38095093 C305.44391898 8.98343015 300.92261981 8.97068302 296.35441589 8.99327087 C295.01830977 8.98908811 293.68220721 8.98360547 292.34611112 8.97695106 C288.70800047 8.96260095 285.07011836 8.96670813 281.43199575 8.97411788 C277.49525651 8.97887338 273.55856505 8.9663187 269.62184143 8.95610046 C261.922131 8.93895308 254.22250232 8.93806406 246.52277776 8.94331337 C240.2603124 8.94736419 233.9978711 8.9459007 227.73540688 8.94056511 C226.84214656 8.93981669 225.94888624 8.93906827 225.02855742 8.93829716 C223.2135538 8.93676559 221.39855017 8.93522724 219.58354656 8.9336822 C202.58369529 8.91997163 185.58389011 8.92538449 168.5840399 8.93686741 C153.05582734 8.94679639 137.52773399 8.93386234 121.99953981 8.90993322 C106.02860984 8.88550859 90.05773531 8.87594272 74.08678705 8.88258594 C65.13098039 8.88607094 56.17526535 8.88389388 47.21947289 8.86633492 C39.59498761 8.85157073 31.97065846 8.85103225 24.34617611 8.86840583 C20.46170054 8.876884 16.57750338 8.87914414 12.69304276 8.86375427 C9.12679064 8.84980092 5.56105263 8.85480458 1.99482945 8.87399351 C0.1156081 8.87946753 -1.76364016 8.86557124 -3.64281017 8.8506394 C-15.28647857 8.94991469 -26.79499707 11.55908894 -37.19067383 16.94345093 Z " transform="translate(92.003173828125,14.619049072265625)" style="fill: #2917F8;"/><path d="M0 0 C8.33304343 8.27902046 10.36290443 18.66360505 10.75 30.125 C10.49158273 40.76571113 8.41886511 51.49623651 1.4375 59.8125 C-10.92041108 71.34655034 -26.8712135 70.19756225 -42.5625 69.8125 C-42.5625 80.3725 -42.5625 90.9325 -42.5625 101.8125 C-50.8125 101.8125 -59.0625 101.8125 -67.5625 101.8125 C-67.5625 66.1725 -67.5625 30.5325 -67.5625 -6.1875 C-12.6003937 -10.41535433 -12.6003937 -10.41535433 0 0 Z " transform="translate(201.5625,41.1875)" style="fill: #210EF8;"/><path d="M0 0 C0.99 0.33 1.98 0.66 3 1 C3 12.55 3 24.1 3 36 C3.66 36 4.32 36 5 36 C5.99455909 33.01632274 6.19559632 30.7995808 6.31640625 27.67578125 C6.37924805 26.13374023 6.37924805 26.13374023 6.44335938 24.56054688 C6.48267578 23.48869141 6.52199219 22.41683594 6.5625 21.3125 C6.62727539 19.68731445 6.62727539 19.68731445 6.69335938 18.02929688 C6.79946742 15.35301615 6.90024055 12.67652489 7 10 C10.3 10 13.6 10 17 10 C16.505 6.04 16.505 6.04 16 2 C17.32 2 18.64 2 20 2 C19.67 4.97 19.34 7.94 19 11 C15.37 11 11.74 11 8 11 C8.33 19.25 8.66 27.5 9 36 C9.66 36 10.32 36 11 36 C11 35.01 11 34.02 11 33 C11.66 33 12.32 33 13 33 C13 28.38 13 23.76 13 19 C18.61 19 24.22 19 30 19 C30 19.99 30 20.98 30 22 C25.05 21.67 20.1 21.34 15 21 C15 25.95 15 30.9 15 36 C16.98 36 18.96 36 21 36 C21 38.64 21 41.28 21 44 C28.92 43.505 28.92 43.505 37 43 C37 44.32 37 45.64 37 47 C31.72 47 26.44 47 21 47 C21 47.66 21 48.32 21 49 C25.29 49.33 29.58 49.66 34 50 C34.495 57.425 34.495 57.425 35 65 C33.515 65.495 33.515 65.495 32 66 C32 61.38 32 56.76 32 52 C28.37 52.33 24.74 52.66 21 53 C21 55.31 21 57.62 21 60 C19.35 60 17.7 60 16 60 C15.67 65.61 15.34 71.22 15 77 C19.62 76.67 24.24 76.34 29 76 C29.33 76.99 29.66 77.98 30 79 C24.39 78.67 18.78 78.34 13 78 C12.505 69.09 12.505 69.09 12 60 C11.34 60 10.68 60 10 60 C9.67 67.59 9.34 75.18 9 83 C13.62 82.67 18.24 82.34 23 82 C23 83.32 23 84.64 23 86 C18.05 85.67 13.1 85.34 8 85 C8 77.41 8 69.82 8 62 C7.34 62 6.68 62 6 62 C6 61.34 6 60.68 6 60 C5.34 60 4.68 60 4 60 C4 67.92 4 75.84 4 84 C2.68 84 1.36 84 0 84 C0.33 76.08 0.66 68.16 1 60 C0.34 60 -0.32 60 -1 60 C-1.03758423 61.44620728 -1.03758423 61.44620728 -1.07592773 62.92163086 C-1.16985306 66.48687842 -1.27010939 70.05192433 -1.37231445 73.61694336 C-1.41571985 75.16214289 -1.45739071 76.70739214 -1.49731445 78.25268555 C-1.55488199 80.46939096 -1.61861424 82.6858448 -1.68359375 84.90234375 C-1.70866249 85.94454323 -1.70866249 85.94454323 -1.73423767 87.00779724 C-1.88612829 91.88612829 -1.88612829 91.88612829 -3 93 C-5.01594582 93.23427778 -7.038474 93.41336124 -9.0625 93.5625 C-10.71958984 93.68818359 -10.71958984 93.68818359 -12.41015625 93.81640625 C-13.26480469 93.87699219 -14.11945313 93.93757813 -15 94 C-15.33 93.01 -15.66 92.02 -16 91 C-19.3 91 -22.6 91 -26 91 C-26 89.68 -26 88.36 -26 87 C-22.7 87.33 -19.4 87.66 -16 88 C-16 78.76 -16 69.52 -16 60 C-16.99 60 -17.98 60 -19 60 C-19.09087891 61.49853516 -19.09087891 61.49853516 -19.18359375 63.02734375 C-19.26738281 64.31769531 -19.35117188 65.60804687 -19.4375 66.9375 C-19.51871094 68.22527344 -19.59992188 69.51304688 -19.68359375 70.83984375 C-20 74 -20 74 -21 75 C-23.01594582 75.23427778 -25.038474 75.41336124 -27.0625 75.5625 C-28.16722656 75.64628906 -29.27195312 75.73007813 -30.41015625 75.81640625 C-31.26480469 75.87699219 -32.11945312 75.93757813 -33 76 C-33.33 75.01 -33.66 74.02 -34 73 C-30.04 73 -26.08 73 -22 73 C-22 68.71 -22 64.42 -22 60 C-23.65 59.67 -25.3 59.34 -27 59 C-27 58.01 -27 57.02 -27 56 C-27.66 56 -28.32 56 -29 56 C-29 55.34 -29 54.68 -29 54 C-33.62 54 -38.24 54 -43 54 C-42.67 58.29 -42.34 62.58 -42 67 C-43.32 67 -44.64 67 -46 67 C-45.67 66.01 -45.34 65.02 -45 64 C-44.77820215 62.10787263 -44.59385985 60.21115528 -44.4375 58.3125 C-44.2209375 55.6828125 -44.2209375 55.6828125 -44 53 C-35.585 52.505 -35.585 52.505 -27 52 C-27 51.34 -27 50.68 -27 50 C-39.87 49.505 -39.87 49.505 -53 49 C-53.33 43.39 -53.66 37.78 -54 32 C-53.01 32 -52.02 32 -51 32 C-51 37.28 -51 42.56 -51 48 C-43.08 47.67 -35.16 47.34 -27 47 C-27 46.01 -27 45.02 -27 44 C-33.27 44 -39.54 44 -46 44 C-46 43.01 -46 42.02 -46 41 C-39.73 41 -33.46 41 -27 41 C-27 39.35 -27 37.7 -27 36 C-25.68 36 -24.36 36 -23 36 C-23 35.01 -23 34.02 -23 33 C-27.95 33.33 -32.9 33.66 -38 34 C-38.495 32.515 -38.495 32.515 -39 31 C-32.73 31 -26.46 31 -20 31 C-19.505 33.475 -19.505 33.475 -19 36 C-18.34 36 -17.68 36 -17 36 C-16.67 33.69 -16.34 31.38 -16 29 C-19.3 29.33 -22.6 29.66 -26 30 C-26 29.01 -26 28.02 -26 27 C-24.18757948 26.97312721 -22.37504767 26.95366285 -20.5625 26.9375 C-19.55316406 26.92589844 -18.54382813 26.91429688 -17.50390625 26.90234375 C-15 27 -15 27 -14 28 C-13.85884839 30.67058851 -13.95752893 33.32432238 -14 36 C-13.34 36 -12.68 36 -12 36 C-11.67 32.04 -11.34 28.08 -11 24 C-13.64 24 -16.28 24 -19 24 C-19.33 19.38 -19.66 14.76 -20 10 C-19.01 10 -18.02 10 -17 10 C-17 14.29 -17 18.58 -17 23 C-14.36 23 -11.72 23 -9 23 C-8.505 29.435 -8.505 29.435 -8 36 C-7.34 36 -6.68 36 -6 36 C-6 29.07 -6 22.14 -6 15 C-5.01 15 -4.02 15 -3 15 C-2.67 21.93 -2.34 28.86 -2 36 C-1.34 36 -0.68 36 0 36 C-0.03552979 34.94498291 -0.07105957 33.88996582 -0.10766602 32.80297852 C-0.23767079 28.90258183 -0.36095839 25.00199716 -0.48217773 21.10131836 C-0.53567115 19.41050377 -0.59100598 17.71974642 -0.64819336 16.02905273 C-0.72990041 13.60412953 -0.80506395 11.17908006 -0.87890625 8.75390625 C-0.90594131 7.99348526 -0.93297638 7.23306427 -0.96083069 6.44960022 C-1.01291299 4.63376666 -1.01186585 2.81654157 -1 1 C-0.67 0.67 -0.34 0.34 0 0 Z " transform="translate(84,42)" style="fill: #2614F8;"/><path d="M0 0 C3.57000297 1.19000099 4.33966392 0.67770602 7.75 -0.625 C11.25392793 -1.74174896 13.5152362 -2.33240969 17 -1 C20.41773153 1.27848768 20.85982385 2.16397219 22 6 C22.22705078 9.04614258 22.22705078 9.04614258 22.1953125 12.39453125 C22.18886719 13.59658203 22.18242187 14.79863281 22.17578125 16.03710938 C22.15902344 17.28298828 22.14226562 18.52886719 22.125 19.8125 C22.11597656 21.07771484 22.10695313 22.34292969 22.09765625 23.64648438 C22.07412394 26.76451564 22.04124545 29.88216097 22 33 C18.7 33 15.4 33 12 33 C11.505 20.625 11.505 20.625 11 8 C8.69 8.33 6.38 8.66 4 9 C3.67 16.92 3.34 24.84 3 33 C0.03 33 -2.94 33 -6 33 C-6.495 20.13 -6.495 20.13 -7 7 C-9.31 7.66 -11.62 8.32 -14 9 C-14.33 16.92 -14.66 24.84 -15 33 C-18.3 33 -21.6 33 -25 33 C-25 21.78 -25 10.56 -25 -1 C-22.69 -1 -20.38 -1 -18 -1 C-18 -0.01 -18 0.98 -18 2 C-16.948125 1.525625 -15.89625 1.05125 -14.8125 0.5625 C-9.09453682 -1.84868929 -5.93697499 -2.32316413 0 0 Z " transform="translate(264,101)" style="fill: #2F1EF8;"/><path d="M0 0 C2.34073182 5.06506183 2.33387338 9.97018828 2.3125 15.4375 C2.32861328 16.25798828 2.34472656 17.07847656 2.36132812 17.92382812 C2.36565419 23.34438218 1.78691585 27.29442313 -1 32 C-4.93035581 34.53012323 -8.98716778 34.2374788 -13.5625 34.1875 C-14.86316406 34.18105469 -16.16382813 34.17460938 -17.50390625 34.16796875 C-21 34 -21 34 -25 33 C-25 21.45 -25 9.9 -25 -2 C-6.83333333 -4.27083333 -6.83333333 -4.27083333 0 0 Z " transform="translate(184,56)" style="fill: #000000;"/><path d="M0 0 C4.03515448 1.68131437 5.67752828 4.23779412 7.375 8.25 C8 12 8 12 8 21 C1.4 21 -5.2 21 -12 21 C-11.34 22.65 -10.68 24.3 -10 26 C-4.87416389 26.10251672 -0.05002222 26.03590199 5 25 C5.66 27.31 6.32 29.62 7 32 C0.58521997 34.90480605 -4.9635051 35.807648 -12 35 C-16.20261675 33.30106982 -18.41945133 30.6864981 -21 27 C-23.13931788 20.58204637 -23.17500578 12.57324841 -20.3125 6.375 C-16.18631955 -1.40191624 -7.70465764 -1.0163179 0 0 Z " transform="translate(314,100)" style="fill: #3120F8;"/><path d="M0 0 C3.3001703 3.21332372 4.28214463 5.83238539 4.5703125 10.42578125 C4.50520833 13.38802083 4.44010417 16.35026042 4.375 19.3125 C-2.225 19.3125 -8.825 19.3125 -15.625 19.3125 C-14.965 20.9625 -14.305 22.6125 -13.625 24.3125 C-8.49916389 24.41501672 -3.67502222 24.34840199 1.375 23.3125 C2.80444945 25.66688733 3.46161261 26.79282433 3 29.5625 C2.690625 30.42875 2.690625 30.42875 2.375 31.3125 C-4.44203982 33.68364429 -11.04841167 34.50469611 -18 32.1875 C-21.8381813 29.44594193 -23.98684151 26.38651509 -25.375 21.875 C-26.1282644 14.15403995 -25.61004632 7.0438079 -20.625 0.8125 C-14.96746393 -3.43065205 -6.11740269 -2.84775642 0 0 Z " transform="translate(409.625,101.6875)" style="fill: #301FF8;"/><path d="M0 0 C1.98 0 3.96 0 6 0 C6.33 0.66 6.66 1.32 7 2 C7.969375 1.67 8.93875 1.34 9.9375 1 C14.27528599 -0.21669607 18.52696255 -0.71810853 23 0 C26.03215675 2.19831364 26.81654398 3.44963194 28 7 C28.08315752 9.06498892 28.10735878 11.1325789 28.09765625 13.19921875 C28.09443359 14.40771484 28.09121094 15.61621094 28.08789062 16.86132812 C28.07951172 18.12396484 28.07113281 19.38660156 28.0625 20.6875 C28.05798828 21.96173828 28.05347656 23.23597656 28.04882812 24.54882812 C28.03702873 27.69926564 28.02056597 30.84960949 28 34 C24.7 34 21.4 34 18 34 C17.505 21.625 17.505 21.625 17 9 C14.69 9.33 12.38 9.66 10 10 C9.67 17.92 9.34 25.84 9 34 C6.03 34 3.06 34 0 34 C0 22.78 0 11.56 0 0 Z " transform="translate(328,100)" style="fill: #2C1AF8;"/><path d="M0 0 C2.33294775 -0.04241723 4.66702567 -0.04092937 7 0 C8 1 8 1 8.0625 4.5625 C8.041875 5.696875 8.02125 6.83125 8 8 C9.98 8 11.96 8 14 8 C14 10.64 14 13.28 14 16 C12.02 16 10.04 16 8 16 C8 21.61 8 27.22 8 33 C9.98 33 11.96 33 14 33 C14 35.64 14 38.28 14 41 C3.87944162 41.62817259 3.87944162 41.62817259 0.375 39.125 C-1.69149725 35.93132243 -2.12156494 34.20726073 -2.09765625 30.4296875 C-2.09282227 29.08583984 -2.09282227 29.08583984 -2.08789062 27.71484375 C-2.07951172 26.77769531 -2.07113281 25.84054688 -2.0625 24.875 C-2.05798828 23.93011719 -2.05347656 22.98523438 -2.04882812 22.01171875 C-2.03702357 19.67441613 -2.02055759 17.33723939 -2 15 C-3.32 15 -4.64 15 -6 15 C-6 13.02 -6 11.04 -6 9 C-4.35 8.67 -2.7 8.34 -1 8 C-1.020625 7.05125 -1.04125 6.1025 -1.0625 5.125 C-1 2 -1 2 0 0 Z " transform="translate(366,94)" style="fill: #3423F8;"/><path d="M0 0 C3.3 0 6.6 0 10 0 C10 14.19 10 28.38 10 43 C6.7 43 3.4 43 0 43 C0 28.81 0 14.62 0 0 Z " transform="translate(420,91)" style="fill: #3524F8;"/><path d="M0 0 C3.3 0 6.6 0 10 0 C10 11.22 10 22.44 10 34 C6.7 34 3.4 34 0 34 C0 22.78 0 11.56 0 0 Z " transform="translate(221,100)" style="fill: #3929F8;"/><path d="M0 0 C0.66 0 1.32 0 2 0 C3.23671084 2.47342168 3.12931819 4.13859311 3.1328125 6.90234375 C3.13474609 8.36124023 3.13474609 8.36124023 3.13671875 9.84960938 C3.13285156 10.86861328 3.12898438 11.88761719 3.125 12.9375 C3.12886719 13.95263672 3.13273437 14.96777344 3.13671875 16.01367188 C3.13542969 16.98755859 3.13414063 17.96144531 3.1328125 18.96484375 C3.13168457 19.8580835 3.13055664 20.75132324 3.12939453 21.67163086 C3 24 3 24 2 27 C2.99 27 3.98 27 5 27 C4.99476318 26.25314941 4.98952637 25.50629883 4.98413086 24.73681641 C4.96339599 21.36621943 4.95035101 17.99563586 4.9375 14.625 C4.92912109 13.449375 4.92074219 12.27375 4.91210938 11.0625 C4.90888672 9.94101563 4.90566406 8.81953125 4.90234375 7.6640625 C4.89710693 6.62717285 4.89187012 5.5902832 4.88647461 4.52197266 C5 2 5 2 6 0 C6.66 0 7.32 0 8 0 C9.43509221 2.87018441 9.11158506 5.33543723 9.09765625 8.5390625 C9.09443359 9.84101562 9.09121094 11.14296875 9.08789062 12.484375 C9.07953466 13.86458399 9.07106971 15.24479232 9.0625 16.625 C9.05748501 18.01301926 9.0529221 19.40104022 9.04882812 20.7890625 C9.03700976 24.19275132 9.02053434 27.59635439 9 31 C5.7 31 2.4 31 -1 31 C-2.38831691 28.22336618 -2.02810892 26.06828834 -1.9140625 22.96875 C-1.87023437 21.76605469 -1.82640625 20.56335938 -1.78125 19.32421875 C-1.7296875 18.06222656 -1.678125 16.80023438 -1.625 15.5 C-1.58117187 14.23800781 -1.53734375 12.97601563 -1.4921875 11.67578125 C-1.12878375 2.25756751 -1.12878375 2.25756751 0 0 Z " transform="translate(71,102)" style="fill: #000000;"/><path d="M0 0 C1.72558884 3.45117767 1.35652026 7.21953988 1 11 C-0.0625 13.5 -0.0625 13.5 -2 15 C-5.375 16 -5.375 16 -9 16 C-11.80189446 14.23358828 -13.51524911 12.96950178 -15 10 C-15.38695173 5.89831165 -15.41714247 3.68530549 -13.25 0.125 C-8.46653888 -4.39271328 -5.66457278 -2.88572576 0 0 Z " transform="translate(343,57)" style="fill: #6357FA;"/><path d="M0 0 C4.62 0 9.24 0 14 0 C14 0.99 14 1.98 14 3 C10.7 3 7.4 3 4 3 C4 5.31 4 7.62 4 10 C6.97 10 9.94 10 13 10 C13 10.99 13 11.98 13 13 C10.03 13 7.06 13 4 13 C4 15.31 4 17.62 4 20 C7.3 20 10.6 20 14 20 C14 20.99 14 21.98 14 23 C9.38 23 4.76 23 0 23 C0 15.41 0 7.82 0 0 Z " transform="translate(247,49)" style="fill: #5D50FA;"/><path d="M0 0 C1.45792884 -0.05399736 2.91642712 -0.09279177 4.375 -0.125 C5.18710937 -0.14820313 5.99921875 -0.17140625 6.8359375 -0.1953125 C9 0 9 0 11 2 C11.14497985 4.58064129 11.18677545 7.04943884 11.125 9.625 C11.11597656 10.33140625 11.10695313 11.0378125 11.09765625 11.765625 C11.07407603 13.51056098 11.03820461 15.25532295 11 17 C9.41986783 17.25028811 7.83557694 17.47440946 6.25 17.6875 C4.92742187 17.87892578 4.92742187 17.87892578 3.578125 18.07421875 C0.40317408 17.98281865 -0.7628221 17.20632028 -3 15 C-3.49315303 12.1819827 -3.38323858 10.69461993 -2 8.1875 C1.23988962 6.26381554 4.2825819 6.81717616 8 7 C7.34 5.68 6.68 4.36 6 3 C4.02 3.33 2.04 3.66 0 4 C0 2.68 0 1.36 0 0 Z " transform="translate(392,55)" style="fill: #2917F8;"/><path d="M0 0 C1.64530416 2.91667555 2 4.64720982 2 8 C-1.96 8 -5.92 8 -10 8 C-9.34 9.32 -8.68 10.64 -8 12 C-4.85335593 12.99367708 -2.33401374 13 1 13 C1 13.99 1 14.98 1 16 C-6.2238041 17.34681093 -6.2238041 17.34681093 -9.9375 15.6875 C-12.23921207 13.80428103 -12.90782891 12.91816585 -13.203125 9.9765625 C-13.32907348 3.65814696 -13.32907348 3.65814696 -11.75 0.5 C-7.78246273 -2.90074623 -4.58903708 -2.19475687 0 0 Z " transform="translate(285,56)" style="fill: #2917F8;"/><path d="M0 0 C1.50156874 3.00313748 1.09281204 5.79067522 1.0625 9.125 C1.05347656 10.40632813 1.04445313 11.68765625 1.03515625 13.0078125 C1.02355469 13.99523437 1.01195312 14.98265625 1 16 C0.01 16 -0.98 16 -2 16 C-2.33 11.38 -2.66 6.76 -3 2 C-4.98 2.33 -6.96 2.66 -9 3 C-9.66 7.29 -10.32 11.58 -11 16 C-11.99 16 -12.98 16 -14 16 C-14 10.39 -14 4.78 -14 -1 C-4.67357513 -2.16580311 -4.67357513 -2.16580311 0 0 Z " transform="translate(362,56)" style="fill: #493AF9;"/><path d="M0 0 C0.99 0 1.98 0 3 0 C3 1.32 3 2.64 3 4 C4.65 4 6.3 4 8 4 C7.67 4.99 7.34 5.98 7 7 C5.68 7 4.36 7 3 7 C3.33 10.63 3.66 14.26 4 18 C5.32 18.33 6.64 18.66 8 19 C7.67 19.99 7.34 20.98 7 22 C4.125 21.75 4.125 21.75 1 21 C-1.10832 17.94848421 -1.22081092 15.39081503 -1.125 11.75 C-1.09792969 10.41195312 -1.09792969 10.41195312 -1.0703125 9.046875 C-1.04710937 8.37140625 -1.02390625 7.6959375 -1 7 C-1.66 7 -2.32 7 -3 7 C-3 6.01 -3 5.02 -3 4 C-2.01 4 -1.02 4 0 4 C0 2.68 0 1.36 0 0 Z " transform="translate(306,51)" style="fill: #7E73FB;"/><path d="M0 0 C0 0.99 0 1.98 0 3 C-1.7015625 3.2165625 -1.7015625 3.2165625 -3.4375 3.4375 C-6.80777201 3.61171478 -6.80777201 3.61171478 -8 5 C-8.07179964 6.51928038 -8.08392007 8.04167482 -8.0625 9.5625 C-8.05347656 10.38878906 -8.04445313 11.21507813 -8.03515625 12.06640625 C-8.02355469 12.70449219 -8.01195312 13.34257813 -8 14 C-5.36 14 -2.72 14 0 14 C0 14.99 0 15.98 0 17 C-4.00336393 17.94196798 -6.16153059 18.4374623 -9.875 16.5 C-12.62245131 13.26770434 -12.92613748 11.21016336 -13 7 C-12.08324478 3.82661654 -11.33659163 2.33659163 -9 0 C-5.7295226 -1.24052591 -3.35038257 -0.83759564 0 0 Z " transform="translate(387,55)" style="fill: #5749F9;"/><path d="M0 0 C0 0.99 0 1.98 0 3 C-1.7015625 3.2165625 -1.7015625 3.2165625 -3.4375 3.4375 C-6.80777201 3.61171478 -6.80777201 3.61171478 -8 5 C-8.07179964 6.51928038 -8.08392007 8.04167482 -8.0625 9.5625 C-8.05347656 10.38878906 -8.04445313 11.21507813 -8.03515625 12.06640625 C-8.02355469 12.70449219 -8.01195312 13.34257813 -8 14 C-5.36 14 -2.72 14 0 14 C0 14.99 0 15.98 0 17 C-4.00336393 17.94196798 -6.16153059 18.4374623 -9.875 16.5 C-12.62245131 13.26770434 -12.92613748 11.21016336 -13 7 C-12.08324478 3.82661654 -11.33659163 2.33659163 -9 0 C-5.7295226 -1.24052591 -3.35038257 -0.83759564 0 0 Z " transform="translate(302,55)" style="fill: #5749F9;"/><path d="M0 0 C1.010625 0.0825 2.02125 0.165 3.0625 0.25 C5.37532587 3.71923881 5.48728586 5.17205575 5.0625 9.25 C3.875 11.1875 3.875 11.1875 2.0625 12.25 C-2.35855263 11.82894737 -2.35855263 11.82894737 -3.9375 10.25 C-4.0354057 8.75261876 -4.06724864 7.25057108 -4.0625 5.75 C-4.06507813 4.9353125 -4.06765625 4.120625 -4.0703125 3.28125 C-3.85752371 0.02683325 -3.31485907 0.28211567 0 0 Z " transform="translate(335.9375,57.75)" style="fill: #000000;"/><path d="M0 0 C0.99 0.33 1.98 0.66 3 1 C2.67 1.99 2.34 2.98 2 4 C0.35 4.66 -1.3 5.32 -3 6 C-3.33 9.96 -3.66 13.92 -4 18 C-5.32 18 -6.64 18 -8 18 C-8 12.39 -8 6.78 -8 1 C-6.68 1.33 -5.36 1.66 -4 2 C-2.65863633 1.34964186 -1.32467746 0.6837045 0 0 Z " transform="translate(324,54)" style="fill: #6458FA;"/><path d="M0 0 C0.66 0 1.32 0 2 0 C2.02465622 4.25414623 2.04283899 8.50825498 2.05493164 12.76245117 C2.05997101 14.21070073 2.06680253 15.65894517 2.07543945 17.10717773 C2.08752247 19.18474588 2.09323211 21.26224697 2.09765625 23.33984375 C2.10289307 24.59144287 2.10812988 25.84304199 2.11352539 27.13256836 C2 30 2 30 1 31 C-1.01594582 31.23427778 -3.038474 31.41336124 -5.0625 31.5625 C-6.71958984 31.68818359 -6.71958984 31.68818359 -8.41015625 31.81640625 C-9.26480469 31.87699219 -10.11945313 31.93757813 -11 32 C-11 30.68 -11 29.36 -11 28 C-7.37 28.33 -3.74 28.66 0 29 C0 19.43 0 9.86 0 0 Z " transform="translate(80,104)" style="fill: #8C83FB;"/><path d="M0 0 C0.99 0 1.98 0 3 0 C3 7.92 3 15.84 3 24 C2.01 24 1.02 24 0 24 C0 16.08 0 8.16 0 0 Z " transform="translate(265,48)" style="fill: #4131F9;"/><path d="M0 0 C0.99 0.33 1.98 0.66 3 1 C3 11.89 3 22.78 3 34 C2.01 34 1.02 34 0 34 C-0.16725324 29.3188055 -0.32784864 24.63744899 -0.48217773 19.95581055 C-0.53566794 18.36199744 -0.59100255 16.76824515 -0.64819336 15.17456055 C-0.72990942 12.88864258 -0.80506897 10.60259054 -0.87890625 8.31640625 C-0.90594131 7.59973282 -0.93297638 6.88305939 -0.96083069 6.14466858 C-1.01297644 4.43052233 -1.01185628 2.71489824 -1 1 C-0.67 0.67 -0.34 0.34 0 0 Z " transform="translate(84,42)" style="fill: #8C83FB;"/><path d="M0 0 C5.61 0 11.22 0 17 0 C17 0.99 17 1.98 17 3 C12.05 2.67 7.1 2.34 2 2 C2 6.95 2 11.9 2 17 C1.67 16.34 1.34 15.68 1 15 C0.34 15 -0.32 15 -1 15 C-1.33 15.66 -1.66 16.32 -2 17 C-2 16.01 -2 15.02 -2 14 C-1.34 14 -0.68 14 0 14 C0 9.38 0 4.76 0 0 Z " transform="translate(97,61)" style="fill: #968DFB;"/><path d="M0 0 C1.32 0 2.64 0 4 0 C4 5.61 4 11.22 4 17 C2.68 17 1.36 17 0 17 C0 11.39 0 5.78 0 0 Z " transform="translate(367,55)" style="fill: #6E62FA;"/><path d="M0 0 C3.63 0 7.26 0 11 0 C11 5 11 5 10 6 C8.31391034 6.07205511 6.62499341 6.08386068 4.9375 6.0625 C4.01839844 6.05347656 3.09929687 6.04445313 2.15234375 6.03515625 C1.44207031 6.02355469 0.73179687 6.01195313 0 6 C0 4.02 0 2.04 0 0 Z " transform="translate(221,91)" style="fill: #3322F8;"/><path d="M0 0 C0.8971875 0.3403125 0.8971875 0.3403125 1.8125 0.6875 C1.8125 1.3475 1.8125 2.0075 1.8125 2.6875 C0.8225 2.6875 -0.1675 2.6875 -1.1875 2.6875 C-0.8575 4.0075 -0.5275 5.3275 -0.1875 6.6875 C1.4625 6.6875 3.1125 6.6875 4.8125 6.6875 C5.1425 6.0275 5.4725 5.3675 5.8125 4.6875 C6.1425 6.3375 6.4725 7.9875 6.8125 9.6875 C-0.45065789 11.01907895 -0.45065789 11.01907895 -3.6875 9.5625 C-5.1875 7.6875 -5.1875 7.6875 -5.625 5.1875 C-5.1875 2.6875 -5.1875 2.6875 -3.9375 0.8125 C-2.1875 -0.3125 -2.1875 -0.3125 0 0 Z " transform="translate(394.1875,62.3125)" style="fill: #5648F9;"/><path d="M0 0 C6.875 2.75 6.875 2.75 8 5 C8.09499503 6.49756871 8.12987198 7.99942932 8.125 9.5 C8.12757813 10.2940625 8.13015625 11.088125 8.1328125 11.90625 C8 14 8 14 7 16 C6.01 15.67 5.02 15.34 4 15 C4.06510417 13.01432292 4.13020833 11.02864583 4.1953125 9.04296875 C4.13254462 6.68640281 4.13254462 6.68640281 2 4 C-0.56282742 3.27034634 -0.56282742 3.27034634 -3 3 C-2.01 2.01 -1.02 1.02 0 0 Z " transform="translate(336,54)" style="fill: #4738F9;"/><path d="M0 0 C0.99 0 1.98 0 3 0 C3 4.29 3 8.58 3 13 C5.64 13 8.28 13 11 13 C11.33 16.63 11.66 20.26 12 24 C11.01 24 10.02 24 9 24 C9 20.7 9 17.4 9 14 C6.36 14 3.72 14 1 14 C0.67 9.38 0.34 4.76 0 0 Z " transform="translate(64,52)" style="fill: #897FFB;"/><path d="M0 0 C4.29 0.33 8.58 0.66 13 1 C13.33 5.95 13.66 10.9 14 16 C13.01 16.33 12.02 16.66 11 17 C11 12.38 11 7.76 11 3 C7.37 3.33 3.74 3.66 0 4 C0.66 3.67 1.32 3.34 2 3 C2 2.34 2 1.68 2 1 C1.34 0.67 0.68 0.34 0 0 Z " transform="translate(105,91)" style="fill: #B0A9FC;"/><path d="M0 0 C0.38218767 1.65614657 0.71395102 3.32457024 1 5 C0 6 0 6 -2.06640625 6.09765625 C-2.89011719 6.08605469 -3.71382813 6.07445313 -4.5625 6.0625 C-5.38878906 6.05347656 -6.21507812 6.04445313 -7.06640625 6.03515625 C-7.70449219 6.02355469 -8.34257812 6.01195313 -9 6 C-8.39816251 3.97954558 -7.72693904 1.97888961 -7 0 C-4.3333581 -1.33332095 -2.83319697 -0.67102033 0 0 Z " transform="translate(403,108)" style="fill: #000000;"/><path d="M0 0 C0.33 1.65 0.66 3.3 1 5 C-2.47325181 6.1577506 -5.36067448 6.06866652 -9 6 C-8.67 4.02 -8.34 2.04 -8 0 C-4.71023192 -1.09658936 -3.28696233 -0.79953138 0 0 Z " transform="translate(311,108)" style="fill: #000000;"/><path d="M0 0 C0.99 0.33 1.98 0.66 3 1 C2.67 3.97 2.34 6.94 2 10 C-1.63 10 -5.26 10 -9 10 C-9 17.26 -9 24.52 -9 32 C-9.33 32 -9.66 32 -10 32 C-10 24.41 -10 16.82 -10 9 C-6.7 9 -3.4 9 0 9 C-0.185625 7.700625 -0.37125 6.40125 -0.5625 5.0625 C-0.87890625 2.84765625 -0.87890625 2.84765625 -1 1 C-0.67 0.67 -0.34 0.34 0 0 Z " transform="translate(101,43)" style="fill: #2D1BF8;"/><path d="M0 0 C0.33 0 0.66 0 1 0 C1 2.64 1 5.28 1 8 C5.41429758 9.14444752 9.41510674 10 14 10 C14 10.99 14 11.98 14 13 C6.7761959 14.34681093 6.7761959 14.34681093 3.0625 12.6875 C1 11 1 11 0 9 C-0.06950541 7.45976004 -0.08452357 5.91665012 -0.0625 4.375 C-0.05347656 3.55773438 -0.04445313 2.74046875 -0.03515625 1.8984375 C-0.02355469 1.27195313 -0.01195312 0.64546875 0 0 Z " transform="translate(272,59)" style="fill: #6C60FA;"/><path d="M0 0 C0.66 0 1.32 0 2 0 C2 8.25 2 16.5 2 25 C1.01 25 0.02 25 -1 25 C-0.67 16.75 -0.34 8.5 0 0 Z " transform="translate(74,104)" style="fill: #897FFB;"/><path d="M0 0 C0.66 0 1.32 0 2 0 C4.55694972 3.83542457 4.04045639 5.65902533 3.625 10.1875 C3.51414062 11.45980469 3.40328125 12.73210937 3.2890625 14.04296875 C3.19367188 15.01878906 3.09828125 15.99460937 3 17 C2.01 17 1.02 17 0 17 C0 11.39 0 5.78 0 0 Z " transform="translate(348,55)" style="fill: #4536F9;"/><path d="M0 0 C0.66 0 1.32 0 2 0 C2 4.95 2 9.9 2 15 C6.62 14.67 11.24 14.34 16 14 C16.33 14.99 16.66 15.98 17 17 C11.39 16.67 5.78 16.34 0 16 C0 10.72 0 5.44 0 0 Z " transform="translate(97,104)" style="fill: #AAA3FC;"/><path d="M0 0 C0.33 0.99 0.66 1.98 1 3 C0.34 3 -0.32 3 -1 3 C-1 3.66 -1 4.32 -1 5 C-0.34 5 0.32 5 1 5 C0.67 6.32 0.34 7.64 0 9 C0 8.01 0 7.02 0 6 C-0.66 6 -1.32 6 -2 6 C-2 5.34 -2 4.68 -2 4 C-6.62 4 -11.24 4 -16 4 C-15.67 8.29 -15.34 12.58 -15 17 C-16.32 17 -17.64 17 -19 17 C-18.67 16.01 -18.34 15.02 -18 14 C-17.77820215 12.10787263 -17.59385985 10.21115528 -17.4375 8.3125 C-17.293125 6.559375 -17.14875 4.80625 -17 3 C-8.585 2.505 -8.585 2.505 0 2 C0 1.34 0 0.68 0 0 Z " transform="translate(57,92)" style="fill: #6D61FA;"/><path d="M0 0 C0.66 0 1.32 0 2 0 C2.33 7.26 2.66 14.52 3 22 C1.68 22 0.36 22 -1 22 C-0.67 14.74 -0.34 7.48 0 0 Z " transform="translate(85,104)" style="fill: #9F98FC;"/><path d="M0 0 C0.33 0 0.66 0 1 0 C1 1.98 1 3.96 1 6 C0.34 6 -0.32 6 -1 6 C-1.33 6.66 -1.66 7.32 -2 8 C-7.61 8 -13.22 8 -19 8 C-19 7.01 -19 6.02 -19 5 C-12.73 5 -6.46 5 0 5 C0 3.35 0 1.7 0 0 Z " transform="translate(57,78)" style="fill: #877DFB;"/><path d="M0 0 C6.27 0 12.54 0 19 0 C19 0.99 19 1.98 19 3 C18.34 3 17.68 3 17 3 C16.67 3.66 16.34 4.32 16 5 C16 4.01 16 3.02 16 2 C11.05 2.33 6.1 2.66 1 3 C0.67 2.01 0.34 1.02 0 0 Z " transform="translate(45,73)" style="fill: #847AFB;"/><path d="M0 0 C0.99 0 1.98 0 3 0 C3 6.27 3 12.54 3 19 C2.34 19 1.68 19 1 19 C0.67 19.66 0.34 20.32 0 21 C0 14.07 0 7.14 0 0 Z " transform="translate(78,57)" style="fill: #9C93FC;"/><path d="M0 0 C0.875 2.125 0.875 2.125 1 4 C0.34 4 -0.32 4 -1 4 C-1.33 4.66 -1.66 5.32 -2 6 C-2.33 5.01 -2.66 4.02 -3 3 C-5.8881755 1.64925728 -5.8881755 1.64925728 -8.0625 3 C-9.0215625 3.495 -9.0215625 3.495 -10 4 C-10.66 3.67 -11.32 3.34 -12 3 C-10.56 -0.72 -10.56 -0.72 -8.25 -1.875 C-5.0602393 -2.05220893 -2.88177603 -1.34482881 0 0 Z " transform="translate(285,56)" style="fill: #5F52FA;"/><path d="M0 0 C1.45792884 -0.05399736 2.91642712 -0.09279177 4.375 -0.125 C5.18710937 -0.14820313 5.99921875 -0.17140625 6.8359375 -0.1953125 C9 0 9 0 11 2 C10.75 4.0625 10.75 4.0625 10 6 C9.01 6.495 9.01 6.495 8 7 C7.34 5.68 6.68 4.36 6 3 C4.02 3.33 2.04 3.66 0 4 C0 2.68 0 1.36 0 0 Z " transform="translate(392,55)" style="fill: #594BF9;"/><path d="M0 0 C0.33 0 0.66 0 1 0 C1 4.29 1 8.58 1 13 C-4.94 13.495 -4.94 13.495 -11 14 C-11.33 13.01 -11.66 12.02 -12 11 C-8.04 11 -4.08 11 0 11 C0 7.37 0 3.74 0 0 Z " transform="translate(62,104)" style="fill: #A29AFB;"/><path d="M0 0 C0.99 0 1.98 0 3 0 C3 1.32 3 2.64 3 4 C4.65 4 6.3 4 8 4 C7.67 4.66 7.34 5.32 7 6 C4.03 5.505 4.03 5.505 1 5 C0.67 8.96 0.34 12.92 0 17 C-0.33 17 -0.66 17 -1 17 C-1 13.7 -1 10.4 -1 7 C-1.66 7 -2.32 7 -3 7 C-3 6.01 -3 5.02 -3 4 C-2.01 4 -1.02 4 0 4 C0 2.68 0 1.36 0 0 Z " transform="translate(306,51)" style="fill: #9187FB;"/><path d="M0 0 C0 0.99 0 1.98 0 3 C-1.5778125 3.2165625 -1.5778125 3.2165625 -3.1875 3.4375 C-6.15460549 3.87526966 -9.06794366 4.37804866 -12 5 C-10.98059612 2.2198076 -10.30279713 1.17185783 -7.6875 -0.3125 C-4.7076274 -1.07479299 -2.9290363 -0.83686751 0 0 Z " transform="translate(387,55)" style="fill: #6A5EFA;"/><path d="M0 0 C0 0.99 0 1.98 0 3 C-1.5778125 3.2165625 -1.5778125 3.2165625 -3.1875 3.4375 C-6.15460549 3.87526966 -9.06794366 4.37804866 -12 5 C-10.98059612 2.2198076 -10.30279713 1.17185783 -7.6875 -0.3125 C-4.7076274 -1.07479299 -2.9290363 -0.83686751 0 0 Z " transform="translate(302,55)" style="fill: #6A5EFA;"/><path d="M0 0 C0.99 0 1.98 0 3 0 C3 5.61 3 11.22 3 17 C2.34 17 1.68 17 1 17 C0.67 11.39 0.34 5.78 0 0 Z " transform="translate(30,74)" style="fill: #8076FB;"/><path d="M0 0 C1.81242052 -0.02687279 3.62495233 -0.04633715 5.4375 -0.0625 C6.44683594 -0.07410156 7.45617187 -0.08570312 8.49609375 -0.09765625 C11 0 11 0 12 1 C12.04080783 2.99958364 12.04254356 5.00045254 12 7 C11.01 6.67 10.02 6.34 9 6 C9.33 4.68 9.66 3.36 10 2 C6.7 2.33 3.4 2.66 0 3 C0 2.01 0 1.02 0 0 Z " transform="translate(58,69)" style="fill: #9188FB;"/><path d="M0 0 C0 1.32 0 2.64 0 4 C-4.95 3.67 -9.9 3.34 -15 3 C-15 2.34 -15 1.68 -15 1 C-12.8750734 0.83240016 -10.75005624 0.66594799 -8.625 0.5 C-7.44164063 0.4071875 -6.25828125 0.314375 -5.0390625 0.21875 C-3.36213157 0.09804546 -1.68126944 0 0 0 Z " transform="translate(107,124)" style="fill: #857BFB;"/><path d="M0 0 C-0.33 0.99 -0.66 1.98 -1 3 C-5.62 3 -10.24 3 -15 3 C-15 2.01 -15 1.02 -15 0 C-12.87562788 -0.19448477 -10.75046809 -0.38038289 -8.625 -0.5625 C-7.44164063 -0.66691406 -6.25828125 -0.77132812 -5.0390625 -0.87890625 C-2 -1 -2 -1 0 0 Z " transform="translate(122,86)" style="fill: #877CFA;"/><path d="M0 0 C-0.33 1.65 -0.66 3.3 -1 5 C-2.65 5.33 -4.3 5.66 -6 6 C-6.33 4.35 -6.66 2.7 -7 1 C-4 0 -4 0 0 0 Z " transform="translate(400,64)" style="fill: #000000;"/><path d="M0 0 C2.00720923 0.28674418 4.0085944 0.61866701 6 1 C6 1.33 6 1.66 6 2 C4.35 2 2.7 2 1 2 C1 5.96 1 9.92 1 14 C0.01 14.495 0.01 14.495 -1 15 C-1.02685412 12.68756208 -1.04632841 10.3750373 -1.0625 8.0625 C-1.07410156 6.77472656 -1.08570313 5.48695312 -1.09765625 4.16015625 C-1 1 -1 1 0 0 Z " transform="translate(307,55)" style="fill: #1B08F8;"/><path d="M0 0 C2.125 0.9375 2.125 0.9375 4 2 C4 2.99 4 3.98 4 5 C1.36 5 -1.28 5 -4 5 C-2.25 1.125 -2.25 1.125 0 0 Z " transform="translate(279,57)" style="fill: #000000;"/><path d="M0 0 C3.96 0.33 7.92 0.66 12 1 C12 1.66 12 2.32 12 3 C6.06 3.495 6.06 3.495 0 4 C0 2.68 0 1.36 0 0 Z " transform="translate(69,132)" style="fill: #8379FB;"/><path d="M0 0 C-0.99 0.495 -0.99 0.495 -2 1 C-2 1.66 -2 2.32 -2 3 C-4.31 3.33 -6.62 3.66 -9 4 C-9.66 2.68 -10.32 1.36 -11 0 C-6.98195309 -0.84098656 -3.98196457 -1.05404945 0 0 Z " transform="translate(361,55)" style="fill: #6A5EFA;"/><path d="M0 0 C1.64666203 0.1135629 3.29236082 0.24117381 4.9375 0.375 C5.85402344 0.44460937 6.77054687 0.51421875 7.71484375 0.5859375 C8.84599609 0.79089844 8.84599609 0.79089844 10 1 C10.33 1.66 10.66 2.32 11 3 C7.37 3.33 3.74 3.66 0 4 C0 2.68 0 1.36 0 0 Z " transform="translate(58,129)" style="fill: #9E96FB;"/><path d="M0 0 C-0.33 0.99 -0.66 1.98 -1 3 C-4.0625 4.1875 -4.0625 4.1875 -7 5 C-7 3.68 -7 2.36 -7 1 C-3.375 -1.125 -3.375 -1.125 0 0 Z " transform="translate(327,55)" style="fill: #6F64FA;"/><path d="M0 0 C0.99 0.33 1.98 0.66 3 1 C2.67 3.97 2.34 6.94 2 10 C1.34 9.67 0.68 9.34 0 9 C-0.44921875 7.1875 -0.44921875 7.1875 -0.6875 5 C-0.77386719 4.278125 -0.86023438 3.55625 -0.94921875 2.8125 C-0.96597656 2.214375 -0.98273438 1.61625 -1 1 C-0.67 0.67 -0.34 0.34 0 0 Z " transform="translate(101,43)" style="fill: #9890FB;"/><path d="M0 0 C0.33 0 0.66 0 1 0 C1 2.64 1 5.28 1 8 C1.9590625 8.1546875 1.9590625 8.1546875 2.9375 8.3125 C3.618125 8.539375 4.29875 8.76625 5 9 C5.33 9.99 5.66 10.98 6 12 C3.5625 11.625 3.5625 11.625 1 11 C-0.20272819 8.59454362 -0.10071472 7.05003047 -0.0625 4.375 C-0.05347656 3.55773438 -0.04445313 2.74046875 -0.03515625 1.8984375 C-0.02355469 1.27195313 -0.01195312 0.64546875 0 0 Z " transform="translate(272,59)" style="fill: #4F41F9;"/><path d="M0 0 C0.8971875 0.3403125 0.8971875 0.3403125 1.8125 0.6875 C1.8125 1.3475 1.8125 2.0075 1.8125 2.6875 C0.8225 2.6875 -0.1675 2.6875 -1.1875 2.6875 C-1.5175 4.0075 -1.8475 5.3275 -2.1875 6.6875 C-2.5175 5.6975 -2.8475 4.7075 -3.1875 3.6875 C-3.8475 5.0075 -4.5075 6.3275 -5.1875 7.6875 C-5.41803497 4.84423536 -5.54653101 3.22604651 -3.9375 0.8125 C-2.1875 -0.3125 -2.1875 -0.3125 0 0 Z " transform="translate(394.1875,62.3125)" style="fill: #887EFB;"/><path d="M0 0 C-0.57344937 2.86724686 -0.8614515 3.8614515 -3 6 C-3.99 6 -4.98 6 -6 6 C-3.69230769 0 -3.69230769 0 0 0 Z " transform="translate(340,47)" style="fill: #7166FA;"/><path d="M0 0 C0 0.66 0 1.32 0 2 C-5.28 1.67 -10.56 1.34 -16 1 C-16 0.67 -16 0.34 -16 0 C-13.89651926 -0.19504458 -11.79217415 -0.38078496 -9.6875 -0.5625 C-8.51574219 -0.66691406 -7.34398438 -0.77132812 -6.13671875 -0.87890625 C-3 -1 -3 -1 0 0 Z " transform="translate(114,119)" style="fill: #594BFA;"/><path d="M0 0 C0.33 0 0.66 0 1 0 C1.33 4.62 1.66 9.24 2 14 C1.01 14.33 0.02 14.66 -1 15 C-0.67 10.05 -0.34 5.1 0 0 Z " transform="translate(117,93)" style="fill: #7E74FB;"/></svg>