<?xml version="1.0" standalone="no"?>
<!DOCTYPE svg PUBLIC "-//W3C//DTD SVG 20010904//EN"
 "http://www.w3.org/TR/2001/REC-SVG-20010904/DTD/svg10.dtd">
<svg version="1.0" xmlns="http://www.w3.org/2000/svg"
 width="300.000000pt" height="116.000000pt" viewBox="0 0 300.000000 116.000000"
 preserveAspectRatio="xMidYMid meet">
<metadata>
Created by potrace 1.10, written by Peter Selinger 2001-2011
</metadata>
<g transform="translate(0.000000,116.000000) scale(0.100000,-0.100000)"
fill="#0723f2" stroke="none">
<path d="M395 1041 c-139 -51 -235 -136 -293 -260 -32 -67 -36 -88 -40 -174
-3 -56 1 -117 7 -145 42 -167 184 -315 344 -358 43 -11 238 -14 1086 -14 1002
0 1036 1 1100 20 139 41 250 145 310 290 35 84 40 216 12 311 -42 140 -140
252 -276 316 l-60 28 -1070 2 c-1016 2 -1073 2 -1120 -16z m2186 -51 c303 -94
406 -473 194 -708 -24 -26 -67 -61 -96 -79 -109 -65 -68 -63 -1187 -63 -1128
0 -1067 -4 -1179 69 -232 150 -272 458 -86 661 55 60 128 105 202 126 36 9
275 12 1067 13 991 1 1024 0 1085 -19z"/>
<path d="M893 942 l-52 -3 0 -340 0 -339 74 0 75 0 0 105 0 105 76 0 c95 0
142 14 187 54 60 53 83 172 56 283 -15 59 -70 117 -125 132 -38 10 -160 11
-291 3z m262 -32 c3 -5 14 -10 23 -10 26 -1 83 -57 93 -93 5 -18 9 -69 8 -115
-1 -67 -6 -88 -23 -110 -30 -39 -58 -61 -78 -62 -9 0 -20 -4 -23 -10 -3 -5
-39 -10 -80 -10 -68 0 -75 -2 -94 -26 -17 -21 -21 -41 -21 -95 0 -57 -3 -70
-19 -79 -30 -16 -47 -12 -58 13 -6 13 -10 132 -10 298 -1 273 0 277 21 287 33
17 54 20 158 21 55 1 99 -3 103 -9z"/>
<path d="M1038 862 c-63 -5 -78 -35 -78 -153 0 -84 3 -102 19 -118 26 -26 100
-36 146 -21 58 19 69 50 66 187 -2 79 -52 113 -153 105z m108 -45 c12 -11 22
-107 16 -155 -7 -61 -33 -76 -112 -67 l-60 7 0 115 0 115 74 -4 c41 -2 78 -7
82 -11z"/>
<path d="M526 786 c5 -85 4 -116 -5 -116 -7 0 -11 23 -11 64 0 57 -8 84 -22
71 -2 -2 -1 -29 2 -59 6 -58 4 -76 -11 -76 -5 0 -9 21 -9 46 0 44 -1 46 -25
42 -24 -5 -25 -3 -25 38 0 24 -5 44 -11 44 -6 0 -9 -19 -7 -47 3 -41 6 -48 26
-51 12 -2 22 -11 23 -20 0 -9 2 -25 4 -34 2 -10 -1 -18 -6 -18 -5 0 -10 6 -10
13 -1 6 -2 19 -3 27 -1 17 -76 28 -76 11 0 -6 14 -11 30 -11 23 0 30 -4 30
-20 0 -11 -4 -20 -10 -20 -5 0 -10 7 -10 15 0 12 -4 11 -20 -5 -11 -11 -20
-24 -20 -30 0 -6 -28 -10 -65 -10 -40 0 -65 -4 -65 -11 0 -6 21 -10 53 -9 76
2 87 1 87 -10 0 -6 -33 -10 -80 -10 l-80 0 0 51 c0 32 -4 49 -11 47 -6 -2 -10
-7 -10 -11 1 -4 1 -27 1 -52 l0 -45 84 0 c47 0 88 -4 91 -10 4 -6 -17 -10 -54
-10 l-61 0 0 -34 c0 -19 -5 -38 -10 -41 -13 -8 -2 -27 13 -22 7 2 10 20 9 43
l-3 39 38 -1 c59 -2 63 -3 63 -19 0 -8 7 -15 15 -15 11 0 15 -11 15 -40 0 -40
0 -40 -40 -40 -22 0 -40 -5 -40 -11 0 -6 17 -9 43 -7 39 3 42 5 45 33 10 107
28 93 24 -19 l-3 -86 -36 0 c-23 0 -33 -4 -30 -12 3 -12 61 -13 80 -1 4 2 7
47 7 99 0 62 4 94 11 94 7 0 10 -29 7 -90 -2 -70 0 -90 10 -90 11 0 13 19 12
78 -3 96 -2 102 9 102 5 0 9 -45 10 -100 l2 -100 -35 0 c-19 0 -38 -5 -41 -11
-5 -7 9 -9 42 -7 l48 3 -3 108 c-3 73 0 107 7 107 13 0 13 -2 11 -97 -1 -46 3
-73 9 -73 7 0 11 32 11 85 0 50 4 85 10 85 6 0 10 -35 10 -84 l0 -84 50 -4
c35 -2 50 1 50 10 0 8 -16 12 -45 12 l-45 0 0 75 c0 91 18 101 22 13 l3 -63
58 -3 c39 -2 57 0 52 7 -3 6 -26 11 -51 11 l-44 0 0 40 c0 22 -1 43 -2 48 -2
4 7 8 20 10 16 3 22 10 22 28 0 20 5 24 30 24 29 0 30 -2 30 -46 0 -28 4 -44
11 -42 6 2 10 7 10 11 -1 4 -1 28 -1 53 l0 47 -33 -6 c-43 -7 -73 9 -35 18 14
4 39 5 54 3 16 -2 30 1 31 6 2 5 -21 9 -51 7 -53 -2 -53 -2 -49 23 5 23 2 26
-22 26 -23 0 -26 3 -21 23 3 12 6 32 6 45 0 20 5 22 50 22 28 0 50 5 50 10 0
6 -27 10 -60 10 l-60 0 0 -55 c0 -30 -4 -55 -10 -55 -6 0 -10 31 -10 74 l0 75
33 3 c28 3 32 7 35 36 2 24 -1 32 -13 32 -11 0 -14 -6 -9 -25 6 -23 3 -25 -25
-25 l-31 0 0 -69 c0 -73 -6 -101 -22 -101 -5 0 -8 47 -7 112 1 78 -2 113 -10
116 -9 3 -10 -25 -5 -112z m88 -152 c17 -17 19 -27 10 -61 -6 -22 -11 -23
-115 -23 -105 0 -110 1 -118 23 -9 22 2 55 23 69 6 4 50 8 98 8 66 0 90 -4
102 -16z"/>
<path d="M1588 853 l-36 -4 -4 -70 -3 -69 43 0 c24 0 42 5 42 11 0 7 -12 10
-30 7 -26 -4 -30 -1 -30 19 0 19 5 23 30 23 17 0 30 5 30 10 0 6 -13 10 -30
10 -23 0 -30 4 -30 20 0 16 7 20 30 20 20 0 30 5 30 15 0 8 -1 14 -2 13 -2 -1
-20 -3 -40 -5z"/>
<path d="M1652 785 c1 -102 23 -102 24 0 1 56 -2 75 -12 75 -9 0 -12 -20 -12
-75z"/>
<path d="M2090 845 c-10 -12 -10 -15 3 -15 8 0 20 7 27 15 10 12 10 15 -3 15
-8 0 -20 -7 -27 -15z"/>
<path d="M2297 853 c-12 -11 -8 -23 8 -23 8 0 15 7 15 15 0 16 -12 20 -23 8z"/>
<path d="M1908 828 c-2 -7 -2 -36 0 -65 3 -41 8 -54 24 -59 26 -8 38 5 15 17
-22 13 -24 79 -2 79 8 0 15 5 15 10 0 6 -7 10 -15 10 -8 0 -15 5 -15 10 0 14
-17 12 -22 -2z"/>
<path d="M1716 804 c-17 -16 -21 -61 -8 -80 10 -16 46 -26 66 -18 24 9 20 27
-5 21 -27 -7 -49 1 -49 19 0 9 12 14 35 14 27 0 35 4 35 18 0 39 -45 55 -74
26z m52 -21 c2 -8 -6 -13 -22 -13 -25 0 -33 10 -19 24 10 10 36 3 41 -11z"/>
<path d="M1820 801 c-17 -33 -12 -69 14 -86 13 -8 31 -13 40 -9 22 9 20 27 -3
19 -23 -7 -44 17 -39 47 2 17 10 23 27 23 14 0 26 6 29 13 7 21 -56 15 -68 -7z"/>
<path d="M1978 762 c-2 -37 1 -52 10 -52 7 0 12 15 12 39 0 31 4 41 20 46 30
10 24 24 -9 22 -28 -2 -30 -4 -33 -55z"/>
<path d="M2067 802 c-25 -27 -21 -69 7 -87 39 -26 76 -3 76 47 0 51 -51 76
-83 40z m61 -38 c4 -37 -23 -54 -46 -30 -22 22 -8 68 21 64 16 -2 23 -11 25
-34z"/>
<path d="M2170 763 c0 -41 3 -53 15 -53 13 0 15 7 10 33 -5 24 -2 37 9 46 27
22 46 6 46 -39 0 -22 5 -40 10 -40 14 0 12 86 -2 98 -7 6 -30 10 -50 9 l-38
-1 0 -53z"/>
<path d="M2300 818 c-7 -36 -3 -108 6 -108 7 0 11 21 11 55 0 30 -4 55 -8 55
-5 0 -9 -1 -9 -2z"/>
<path d="M2356 804 c-24 -24 -20 -71 8 -89 13 -8 31 -13 40 -9 22 9 20 27 -3
19 -25 -8 -45 19 -37 51 6 22 11 25 31 20 18 -5 25 -2 25 9 0 20 -44 20 -64
-1z"/>
<path d="M2445 810 c-7 -11 -1 -13 33 -10 14 1 22 -4 22 -14 0 -9 -8 -16 -19
-16 -32 0 -51 -11 -51 -31 0 -25 34 -43 59 -30 10 6 21 7 25 4 3 -3 6 16 6 44
0 37 -4 53 -16 57 -24 9 -52 7 -59 -4z m55 -64 c0 -18 -31 -29 -44 -16 -8 8
-7 14 4 20 22 14 40 12 40 -4z"/>
<path d="M282 699 c2 -6 7 -10 11 -10 4 1 26 1 50 2 32 0 37 2 22 9 -29 13
-87 12 -83 -1z"/>
<path d="M1380 570 c0 -16 7 -20 34 -20 29 0 33 3 29 20 -4 14 -14 20 -34 20
-22 0 -29 -5 -29 -20z"/>
<path d="M2625 455 l0 -135 30 0 30 0 0 135 0 135 -30 0 -30 0 0 -135z"/>
<path d="M2287 563 c-4 -3 -7 -17 -7 -31 0 -17 -4 -23 -15 -18 -10 4 -15 -1
-15 -14 0 -11 7 -20 15 -20 12 0 15 -14 15 -69 0 -61 3 -72 22 -85 12 -9 35
-16 51 -16 25 0 28 3 25 28 -2 19 -9 27 -23 27 -17 0 -20 8 -23 58 -3 55 -2
57 23 57 18 0 25 5 25 20 0 15 -7 20 -26 20 -23 0 -25 3 -20 25 5 21 3 25 -17
25 -13 0 -27 -3 -30 -7z"/>
<path d="M1390 528 c0 -2 -2 -49 -3 -106 l-2 -102 30 0 30 0 0 105 0 105 -27
0 c-16 0 -28 -1 -28 -2z"/>
<path d="M1498 425 l-3 -105 30 0 30 0 -3 75 c-4 71 -3 75 19 84 13 5 27 7 32
4 4 -2 7 -40 7 -84 l0 -79 30 0 30 0 0 79 c0 73 2 79 22 85 34 8 40 -5 36 -88
l-3 -76 33 0 32 0 0 68 c0 37 -5 84 -11 105 -9 34 -13 37 -45 37 -19 0 -44 -6
-55 -12 -17 -10 -23 -10 -26 0 -6 15 -75 16 -91 0 -9 -9 -15 -9 -24 0 -30 30
-37 13 -40 -93z"/>
<path d="M1851 504 c-23 -29 -29 -110 -11 -145 17 -31 66 -51 108 -43 54 10
61 15 51 41 -7 20 -12 21 -34 13 -53 -20 -85 -8 -85 31 0 4 28 7 63 6 l62 -2
-2 43 c-2 60 -24 82 -84 82 -39 0 -51 -4 -68 -26z m97 -41 c3 -20 -1 -23 -32
-23 -39 0 -41 2 -25 31 14 27 53 21 57 -8z"/>
<path d="M2050 425 l0 -105 31 0 30 0 -2 77 c-2 72 -1 77 21 85 35 13 42 -2
38 -86 l-3 -76 30 0 30 0 -3 92 c-2 51 -8 98 -14 105 -13 17 -80 17 -97 1 -11
-10 -14 -10 -18 0 -3 6 -13 12 -24 12 -18 0 -19 -8 -19 -105z"/>
<path d="M2430 505 c-18 -20 -22 -34 -21 -80 1 -66 15 -92 58 -106 34 -11 113
3 113 21 0 27 -13 39 -31 29 -11 -6 -34 -9 -52 -7 -24 2 -33 8 -35 25 -3 21
-1 22 64 18 l67 -5 -7 47 c-9 64 -28 83 -86 83 -36 0 -51 -5 -70 -25z m100
-40 c0 -22 -4 -25 -35 -25 -19 0 -35 4 -35 9 0 27 15 41 41 41 24 0 29 -4 29
-25z"/>
</g>
</svg>
